<svg width="25" height="25" viewBox="0 0 25 25" fill="none" xmlns="http://www.w3.org/2000/svg">
<path id="Vector" d="M17.3921 12.7569C17.5009 12.5892 17.5651 12.3965 17.5787 12.1971C17.5924 11.9977 17.5551 11.7981 17.4703 11.6171L17.0355 10.8206C16.8254 10.4349 16.6152 10.0486 16.405 9.6616C16.2489 7.61083 15.6396 5.62027 14.6211 3.83347C14.0511 2.22449 12.4156 0.902611 10.232 0.30144C10.2203 0.297533 10.2043 0.297533 10.1929 0.293627C9.53987 0.112353 8.86664 0.0137962 8.18902 0.000267719H8.05582C6.12561 -0.0161984 4.26642 0.727476 2.88004 2.07058C-0.498476 5.51199 1.09879 11.1643 1.55621 12.137C1.87652 12.8206 2.19645 13.5081 2.52496 14.2073C2.71364 14.6089 3.0092 14.9508 3.37926 15.1956C3.44233 16.8151 3.08319 18.4232 2.33707 19.862C1.87423 20.1619 1.46282 20.5345 1.11871 20.9655C0.34688 22.0214 -0.0458134 23.307 0.0042585 24.6139C0.00451423 24.665 0.0148239 24.7154 0.034598 24.7625C0.0543721 24.8095 0.083223 24.8522 0.119501 24.8881C0.155779 24.9239 0.198773 24.9523 0.246025 24.9716C0.293277 24.9908 0.343861 25.0006 0.394884 25.0003H2.32066V23.0471C2.32066 22.9435 2.36182 22.8442 2.43508 22.7709C2.50833 22.6977 2.60769 22.6565 2.71129 22.6565C2.81489 22.6565 2.91425 22.6977 2.9875 22.7709C3.06076 22.8442 3.10191 22.9435 3.10191 23.0471V25.0003H9.35192V23.0471C9.35192 22.9435 9.39307 22.8442 9.46633 22.7709C9.53958 22.6977 9.63894 22.6565 9.74254 22.6565C9.84614 22.6565 9.9455 22.6977 10.0188 22.7709C10.092 22.8442 10.1332 22.9435 10.1332 23.0471V25.0003H13.6019C13.6593 25.0005 13.7161 24.988 13.7681 24.9637C13.8201 24.9394 13.8661 24.9039 13.9027 24.8596C13.9396 24.8143 13.9661 24.7614 13.9803 24.7047C13.9944 24.648 13.996 24.5889 13.9847 24.5315C13.7299 23.142 13.063 21.8612 12.0707 20.8557C11.7338 20.5279 11.3635 20.2362 10.966 19.9854C10.6242 19.2005 10.5394 18.3277 10.7238 17.4917C10.7682 17.3059 10.8297 17.1246 10.9078 16.9503C10.9302 16.9032 10.943 16.8521 10.9453 16.8C10.9477 16.7479 10.9396 16.6958 10.9215 16.6469C10.9034 16.598 10.8757 16.5532 10.84 16.5151C10.8043 16.4771 10.7614 16.4466 10.7137 16.4254C10.6661 16.4042 10.6146 16.3928 10.5625 16.3918C10.5104 16.3908 10.4585 16.4003 10.4101 16.4196C10.3617 16.439 10.3176 16.4678 10.2805 16.5045C10.2434 16.5412 10.214 16.5849 10.1941 16.6331C10.0972 16.8502 10.0205 17.0758 9.96481 17.3069C9.79697 18.0139 9.80247 18.7509 9.98082 19.4553C8.67996 18.886 7.26073 18.6397 5.8441 18.7374C5.01805 18.7898 4.20577 18.9744 3.43824 19.2843C3.92572 18.1008 4.17705 16.8334 4.17809 15.5534C4.359 15.5979 4.54453 15.6208 4.73082 15.6218C5.09342 15.6226 5.45097 15.5369 5.77379 15.3718C5.98815 15.2616 6.18443 15.1193 6.35582 14.9499C6.36065 14.9454 6.36462 14.9401 6.36754 14.9343C6.37535 14.9264 6.38707 14.9225 6.39098 14.9147C6.98146 14.3001 7.33447 13.4958 7.38707 12.6452C7.1526 12.4269 6.96568 12.1626 6.83797 11.8689C6.71027 11.5751 6.64454 11.2581 6.64488 10.9378V9.76589C6.64602 9.35184 6.811 8.95507 7.10378 8.66229C7.39656 8.36951 7.79333 8.20453 8.20738 8.20339H9.37926C9.69006 8.20339 9.98813 8.32686 10.2079 8.54663C10.4277 8.7664 10.5511 9.06447 10.5511 9.37527V9.72292C10.6254 9.7073 10.7035 9.69167 10.7816 9.67605C11.5394 9.5198 13.4023 8.97683 14.3168 7.35183C14.5543 6.92588 14.7142 6.4611 14.789 5.97917C15.1496 6.95125 15.4028 7.95985 15.5441 8.98699L12.841 9.37527C12.7902 9.38255 12.7413 9.39977 12.6972 9.42593C12.6531 9.4521 12.6145 9.4867 12.5838 9.52776C12.553 9.56882 12.5306 9.61554 12.5179 9.66524C12.5052 9.71495 12.5024 9.76667 12.5097 9.81746C12.517 9.86824 12.5342 9.91709 12.5604 9.96122C12.5866 10.0054 12.6212 10.0439 12.6622 10.0747C12.7033 10.1054 12.75 10.1278 12.7997 10.1405C12.8494 10.1532 12.9011 10.156 12.9519 10.1487L14.5257 9.92371L13.7933 10.6573C13.757 10.6935 13.7281 10.7365 13.7083 10.7838C13.6886 10.8312 13.6783 10.882 13.6782 10.9333C13.6781 10.9846 13.6881 11.0354 13.7076 11.0829C13.7271 11.1303 13.7558 11.1735 13.792 11.2098C13.8281 11.2462 13.8711 11.2751 13.9185 11.2948C13.9659 11.3146 14.0166 11.3248 14.0679 11.325C14.1192 11.3251 14.1701 11.3151 14.2175 11.2956C14.265 11.2761 14.3081 11.2474 14.3445 11.2112L15.6589 9.89636C15.6634 9.91803 15.6695 9.93932 15.6773 9.96003C15.9005 10.3731 16.1247 10.7853 16.35 11.1968L16.7687 11.9624C16.7946 12.0217 16.8054 12.0866 16.8 12.1512C16.7946 12.2157 16.7732 12.2779 16.7378 12.3322C16.7024 12.3864 16.654 12.431 16.5971 12.4619C16.5402 12.4928 16.4765 12.5091 16.4117 12.5093H16.0199C15.9163 12.5093 15.8169 12.5504 15.7437 12.6237C15.6704 12.6969 15.6293 12.7963 15.6293 12.8999V13.2905H14.8441C14.6817 13.2911 14.5212 13.3254 14.3726 13.3911C14.2241 13.4568 14.0908 13.5527 13.9812 13.6725C13.8716 13.7923 13.788 13.9336 13.7357 14.0874C13.6834 14.2411 13.6635 14.4041 13.6773 14.5659C13.7103 14.8626 13.8526 15.1364 14.0765 15.3339C14.3003 15.5314 14.5897 15.6385 14.8882 15.6343H15.3023C15.3888 15.6338 15.4719 15.6677 15.5334 15.7285C15.5949 15.7893 15.6298 15.872 15.6304 15.9585C15.6307 16.0185 15.6188 16.0779 15.5954 16.1331C15.572 16.1884 15.5377 16.2383 15.4945 16.28C15.4521 16.3232 15.4015 16.3576 15.3456 16.3809C15.2897 16.4041 15.2297 16.4159 15.1691 16.4155H12.9339C12.5683 16.39 12.2209 16.2463 11.9441 16.0061L10.9066 14.9651C10.7977 14.8571 10.7113 14.7285 10.6524 14.5868C10.5935 14.4451 10.5634 14.2931 10.5636 14.1397V12.8975C10.5636 12.7939 10.5225 12.6946 10.4492 12.6213C10.376 12.5481 10.2766 12.5069 10.173 12.5069C10.0694 12.5069 9.97005 12.5481 9.8968 12.6213C9.82354 12.6946 9.78238 12.7939 9.78238 12.8975V14.1409C9.78217 14.3969 9.83275 14.6503 9.93118 14.8866C10.0296 15.1229 10.1739 15.3373 10.3558 15.5175L11.3945 16.5561C11.8163 16.9438 12.3616 17.1699 12.9339 17.1944H15.1679C15.3303 17.1949 15.4911 17.1632 15.6412 17.1012C15.7912 17.0392 15.9275 16.948 16.0421 16.8331C16.1596 16.7193 16.2527 16.583 16.316 16.4323C16.3793 16.2816 16.4115 16.1196 16.4105 15.9561C16.4096 15.6625 16.2923 15.3813 16.0843 15.1741C15.8764 14.9669 15.5947 14.8506 15.3011 14.8507H14.8871C14.7841 14.8537 14.6835 14.8189 14.6044 14.7529C14.5253 14.6869 14.473 14.5943 14.4574 14.4925C14.4534 14.4386 14.4605 14.3845 14.4783 14.3335C14.496 14.2825 14.5241 14.2357 14.5608 14.196C14.5974 14.1564 14.6418 14.1246 14.6912 14.1029C14.7406 14.0811 14.794 14.0697 14.848 14.0694H16.0199C16.1235 14.0694 16.2228 14.0283 16.2961 13.955C16.3694 13.8817 16.4105 13.7824 16.4105 13.6788V13.2882C16.6055 13.2886 16.7974 13.2402 16.9689 13.1474C17.1404 13.0546 17.2859 12.9204 17.3921 12.7569ZM22.8015 18.3811L17.7234 16.428C17.6266 16.3909 17.5191 16.3937 17.4244 16.4358C17.3297 16.478 17.2557 16.556 17.2185 16.6528C17.1814 16.7496 17.1842 16.8571 17.2264 16.9518C17.2685 17.0465 17.3466 17.1206 17.4433 17.1577L22.5214 19.1108C22.5663 19.1277 22.6138 19.1365 22.6617 19.1366C22.753 19.1367 22.8414 19.1047 22.9117 19.0464C22.9819 18.988 23.0294 18.9069 23.0461 18.8171C23.0627 18.7273 23.0473 18.6345 23.0026 18.5549C22.958 18.4752 22.8868 18.4138 22.8015 18.3811ZM24.1105 19.2507C24.0735 19.2139 24.0297 19.1846 23.9816 19.1643C23.8864 19.1257 23.7799 19.1257 23.6847 19.1643C23.6373 19.1856 23.5938 19.2148 23.5562 19.2507C23.5207 19.2863 23.4927 19.3287 23.4738 19.3753C23.4542 19.4238 23.4437 19.4756 23.4429 19.528C23.4416 19.5792 23.4522 19.63 23.4738 19.6764C23.4927 19.723 23.5207 19.7654 23.5562 19.801C23.6106 19.8559 23.6801 19.8934 23.7558 19.9088C23.8315 19.9242 23.91 19.9167 23.9815 19.8875C24.053 19.8582 24.1143 19.8084 24.1574 19.7443C24.2006 19.6803 24.2239 19.6049 24.2242 19.5276C24.2231 19.4752 24.2124 19.4234 24.1925 19.3749C24.1736 19.3285 24.1457 19.2863 24.1105 19.2507ZM24.6136 14.846H17.5824C17.4788 14.846 17.3794 14.8871 17.3062 14.9604C17.2329 15.0336 17.1918 15.133 17.1918 15.2366C17.1918 15.3402 17.2329 15.4396 17.3062 15.5128C17.3794 15.5861 17.4788 15.6272 17.5824 15.6272H24.6136C24.7172 15.6272 24.8166 15.5861 24.8898 15.5128C24.9631 15.4396 25.0043 15.3402 25.0043 15.2366C25.0043 15.133 24.9631 15.0336 24.8898 14.9604C24.8166 14.8871 24.7172 14.846 24.6136 14.846Z" fill="#525252"/>
</svg>
