<svg width="24" height="24" viewBox="0 0 24 24" fill="none" xmlns="http://www.w3.org/2000/svg">
<path id="Vector" d="M12.0164 0C10.4844 0 8.96727 0.301767 7.5518 0.888072C6.13634 1.47438 4.85021 2.33374 3.76686 3.41709C1.57894 5.60501 0.349775 8.57247 0.349775 11.6667C0.339576 14.3607 1.27237 16.9733 2.98644 19.0517L0.653108 21.385C0.491224 21.5491 0.381562 21.7574 0.337959 21.9837C0.294356 22.21 0.318765 22.4442 0.408108 22.6567C0.505009 22.8666 0.662096 23.043 0.859429 23.1635C1.05676 23.2839 1.28544 23.3431 1.51644 23.3333H12.0164C15.1106 23.3333 18.0781 22.1042 20.266 19.9162C22.4539 17.7283 23.6831 14.7609 23.6831 11.6667C23.6831 8.57247 22.4539 5.60501 20.266 3.41709C18.0781 1.22916 15.1106 0 12.0164 0ZM12.0164 21H4.32811L5.41311 19.915C5.6304 19.6964 5.75237 19.4007 5.75237 19.0925C5.75237 18.7843 5.6304 18.4886 5.41311 18.27C3.88546 16.744 2.93414 14.7356 2.72125 12.5869C2.50835 10.4382 3.04704 8.28217 4.24554 6.48611C5.44404 4.69004 7.2282 3.36508 9.29404 2.73697C11.3599 2.10885 13.5796 2.21644 15.575 3.0414C17.5704 3.86636 19.2181 5.35765 20.2373 7.26121C21.2565 9.16476 21.5841 11.3628 21.1644 13.4808C20.7447 15.5989 19.6036 17.5059 17.9356 18.8769C16.2675 20.248 14.1757 20.9983 12.0164 21ZM15.5164 10.5H13.1831V8.16667C13.1831 7.85725 13.0602 7.5605 12.8414 7.34171C12.6226 7.12292 12.3259 7 12.0164 7C11.707 7 11.4103 7.12292 11.1915 7.34171C10.9727 7.5605 10.8498 7.85725 10.8498 8.16667V10.5H8.51644C8.20702 10.5 7.91028 10.6229 7.69148 10.8417C7.47269 11.0605 7.34978 11.3572 7.34978 11.6667C7.34978 11.9761 7.47269 12.2728 7.69148 12.4916C7.91028 12.7104 8.20702 12.8333 8.51644 12.8333H10.8498V15.1667C10.8498 15.4761 10.9727 15.7728 11.1915 15.9916C11.4103 16.2104 11.707 16.3333 12.0164 16.3333C12.3259 16.3333 12.6226 16.2104 12.8414 15.9916C13.0602 15.7728 13.1831 15.4761 13.1831 15.1667V12.8333H15.5164C15.8259 12.8333 16.1226 12.7104 16.3414 12.4916C16.5602 12.2728 16.6831 11.9761 16.6831 11.6667C16.6831 11.3572 16.5602 11.0605 16.3414 10.8417C16.1226 10.6229 15.8259 10.5 15.5164 10.5Z" fill="white" fill-opacity="0.4"/>
</svg>
