<svg width="21" height="18" viewBox="0 0 21 18" fill="none" xmlns="http://www.w3.org/2000/svg">
<path d="M12.26 -4.98984e-05C7.17 -0.14005 3 3.94995 3 8.99995H1.21C0.76 8.99995 0.54 9.53995 0.86 9.84995L3.65 12.65C3.85 12.8499 4.16 12.8499 4.36 12.65L7.15 9.84995C7.46 9.53995 7.24 8.99995 6.79 8.99995H5C5 5.09995 8.18 1.94995 12.1 1.99995C15.82 2.04995 18.95 5.17995 19 8.89995C19.05 12.8099 15.9 16 12 16C10.39 16 8.9 15.45 7.72 14.52C7.32 14.21 6.76 14.24 6.4 14.6C5.98 15.02 6.01 15.73 6.48 16.09C8 17.29 9.91 18 12 18C17.05 18 21.14 13.83 21 8.73995C20.87 4.04995 16.95 0.12995 12.26 -4.98984e-05ZM11.75 4.99995C11.34 4.99995 11 5.33995 11 5.74995V9.42995C11 9.77995 11.19 10.11 11.49 10.29L14.61 12.14C14.97 12.35 15.43 12.23 15.64 11.88C15.85 11.52 15.73 11.06 15.38 10.85L12.5 9.13995V5.73995C12.5 5.33995 12.16 4.99995 11.75 4.99995Z" fill="white" fill-opacity="0.4"/>
</svg>
