<svg width="24" height="24" viewBox="0 0 24 24" fill="none" xmlns="http://www.w3.org/2000/svg">
<g id="&#60;Group&#62;">
<path id="&#60;Path&#62;" d="M6.22321 0.974733L6.36959 0.138078C5.78248 0.0345534 5.18609 -0.00611404 4.59043 0.0167589C3.26776 0.07787 2.20318 0.504427 1.42681 1.28491C0.866024 1.8477 0.485347 2.57084 0.295511 3.4341C0.295088 3.4359 0.294718 3.43771 0.294348 3.43941C0.161004 4.08536 0.122639 4.74745 0.180478 5.40457L1.02303 5.32982C0.972563 4.75639 1.00587 4.17863 1.12189 3.61488C1.27662 2.91356 1.58033 2.33181 2.02481 1.88567C2.64751 1.25985 3.52379 0.916701 4.62575 0.865784C5.16057 0.845432 5.69603 0.881951 6.22321 0.974733ZM2.80213 10.6526C2.54717 10.1856 2.31456 9.71649 2.11077 9.25813L1.33821 9.60473C1.55141 10.0841 1.79432 10.5741 2.06023 11.0612L2.80213 10.6526ZM0.417046 6.91127C0.504801 7.29116 0.615711 7.68501 0.746815 8.08189L1.54967 7.81445C1.42676 7.44232 1.32293 7.07385 1.24105 6.71934L0.417046 6.91127ZM3.22219 12.9649C3.48652 13.3562 3.76987 13.7522 4.06464 14.1415C4.09855 14.1863 4.13261 14.2311 4.16683 14.2758L4.83721 13.7577C4.80408 13.7145 4.77107 13.6711 4.73819 13.6276C4.45235 13.2502 4.17783 12.8668 3.92233 12.4882L3.22219 12.9649ZM6.59162 15.8286C6.38053 15.6019 6.17177 15.3706 5.9712 15.1413C5.92211 15.0851 5.87331 15.0288 5.82482 14.9725L5.18516 15.5282C5.23496 15.586 5.28513 15.6439 5.33567 15.7017C5.5421 15.9378 5.75689 16.1757 5.974 16.4089C6.07127 16.5134 6.16969 16.6175 6.26925 16.7213L6.87841 16.1323C6.78174 16.0313 6.68614 15.93 6.59162 15.8286ZM22.6056 14.208L21.8311 14.5493C22.3128 15.6516 22.6354 16.7025 22.7899 17.6726C23.0796 19.4908 22.7621 20.9245 21.8716 21.8188C21.431 22.2612 20.8576 22.5649 20.1675 22.7214C19.6089 22.8476 18.975 22.8778 18.2836 22.8112C18.1132 22.7947 17.9372 22.7722 17.7608 22.7441L17.6286 23.583C17.8222 23.6138 18.0154 23.6386 18.2029 23.6567C18.4677 23.6822 18.7256 23.6949 18.9766 23.6948C19.4395 23.6977 19.9013 23.6491 20.3536 23.55C21.2023 23.3578 21.9143 22.9775 22.4698 22.4196C23.5601 21.3246 23.9596 19.6368 23.6252 17.5385C23.4593 16.4971 23.1163 15.3765 22.6056 14.208ZM21.6546 12.3178L20.9198 12.7389C21.1154 13.083 21.2996 13.4298 21.4675 13.7695L22.2251 13.3917C22.0502 13.0373 21.8582 12.6759 21.6546 12.3178ZM20.7548 10.8599C20.465 10.4281 20.1593 9.99858 19.8462 9.58349L19.1719 10.0965C19.4757 10.4991 19.7723 10.9158 20.0535 11.3347L20.7548 10.8599ZM17.7599 7.12237L17.1481 7.70895C17.5062 8.0856 17.858 8.47754 18.1938 8.87378L18.8379 8.32314C18.4917 7.91459 18.129 7.51065 17.7599 7.12237ZM16.6795 20.9605C16.6644 20.9067 16.6388 20.8564 16.6043 20.8125C16.5698 20.7686 16.527 20.732 16.4784 20.7048C16.4298 20.6776 16.3763 20.6603 16.321 20.6539C16.2657 20.6474 16.2097 20.652 16.1562 20.6674C16.1026 20.6828 16.0527 20.7086 16.0091 20.7434C15.9656 20.7783 15.9293 20.8214 15.9023 20.8703C15.8754 20.9192 15.8584 20.973 15.8522 21.0286C15.846 21.0841 15.8508 21.1404 15.8663 21.1941L16.2015 22.3707C15.2437 22.0639 14.3158 21.6697 13.4296 21.1929C12.1884 20.5269 11.0081 19.7522 9.90236 18.878C9.0819 18.2326 8.29698 17.5429 7.55106 16.8119L6.96019 17.4202C7.72785 18.1724 8.53563 18.8823 9.37996 19.5465C10.5251 20.4517 11.7475 21.2539 13.0329 21.9435C13.7687 22.3368 14.5307 22.6786 15.3133 22.9667L14.6213 23.1656C14.5673 23.1804 14.5168 23.2058 14.4727 23.2404C14.4286 23.275 14.3917 23.318 14.3643 23.3669C14.3369 23.4159 14.3194 23.4699 14.3128 23.5257C14.3063 23.5815 14.3109 23.638 14.3263 23.6921C14.3417 23.7461 14.3676 23.7965 14.4025 23.8404C14.4374 23.8843 14.4807 23.9208 14.5297 23.9478C14.5788 23.9748 14.6327 23.9917 14.6884 23.9976C14.744 24.0036 14.8003 23.9983 14.8539 23.9822L16.9302 23.3855C17.0381 23.3545 17.1292 23.2818 17.1836 23.1833C17.2381 23.0848 17.2513 22.9686 17.2204 22.8603L16.6795 20.9605ZM10.1962 0.336013C10.1846 0.281441 10.1624 0.229702 10.1309 0.183751C10.0993 0.1378 10.0591 0.0985389 10.0125 0.0682103C9.96582 0.0378816 9.91368 0.0170802 9.85904 0.00699479C9.80439 -0.00309067 9.7483 -0.00226252 9.69397 0.00943192L7.58198 0.462801C7.4723 0.486349 7.37643 0.55269 7.31545 0.647231C7.25447 0.741772 7.23338 0.85677 7.25681 0.966928L7.66831 2.89896C7.69259 3.00827 7.75887 3.10353 7.85273 3.164C7.94659 3.22447 8.06043 3.24527 8.16947 3.22186C8.27852 3.19845 8.37395 3.13273 8.435 3.03901C8.49604 2.94529 8.51776 2.83114 8.49543 2.72142L8.23951 1.51884C8.97401 1.7822 9.6887 2.09829 10.378 2.46465C11.6032 3.11419 12.7694 3.87029 13.8632 4.72428C14.3791 5.12413 14.8987 5.55785 15.4072 6.01313C15.6893 6.26618 15.9734 6.53117 16.2513 6.80084C16.3736 6.91939 16.4967 7.04098 16.6174 7.16219L17.2155 6.56154C17.0914 6.43688 16.9647 6.312 16.839 6.18988C16.5531 5.91252 16.2609 5.63988 15.9703 5.37925C15.447 4.91048 14.9116 4.4638 14.3811 4.05269C13.872 3.65507 13.345 3.27789 12.8044 2.92084C13.1081 2.7495 13.4124 2.58725 13.7103 2.43853L13.3343 1.6778C12.9701 1.85944 12.5978 2.05939 12.2279 2.27245L12.4763 2.70782C11.9213 2.35387 11.3537 2.02254 10.7735 1.71385C10.2647 1.44368 9.74262 1.19951 9.20926 0.982272L9.87102 0.840193C9.92533 0.828533 9.97682 0.806243 10.0226 0.774595C10.0683 0.742947 10.1074 0.702561 10.1376 0.655743C10.1678 0.608925 10.1885 0.556592 10.1985 0.501733C10.2086 0.446873 10.2078 0.390561 10.1962 0.336013ZM3.59965 22.8721C2.90184 22.717 2.32234 22.4122 1.87796 21.9659C1.2549 21.3402 0.913179 20.46 0.86243 19.3533C0.842206 18.8162 0.878639 18.2784 0.971119 17.749L0.138186 17.6021C0.035217 18.1917 -0.00525641 18.7907 0.0174435 19.3889C0.0782376 20.7173 0.502951 21.7864 1.28006 22.5666C1.8409 23.1298 2.56091 23.5117 3.42023 23.7022L3.42551 23.7033C3.87456 23.7969 4.33197 23.844 4.79058 23.844C4.98776 23.844 5.18493 23.8353 5.38208 23.8179L5.30775 22.9717C4.7366 23.0223 4.16113 22.9888 3.59965 22.8721ZM6.69106 22.7528L6.882 23.5804C7.26009 23.4925 7.65224 23.381 8.04767 23.2492L7.78133 22.4428C7.4106 22.5664 7.04382 22.6707 6.69106 22.7528ZM9.21883 21.8794L9.56392 22.6552C10.0413 22.441 10.5292 22.197 11.0141 21.9301L10.6074 21.1852C10.1425 21.4409 9.67536 21.6745 9.21883 21.8794Z" fill="#75FBB9"/>
<path id="&#60;Path&#62;_2" d="M13.5694 19.2405C13.2081 19.5166 12.8412 19.7821 12.4789 20.0298L12.9547 20.7321C13.3292 20.4759 13.7083 20.2016 14.0812 19.9168C14.1257 19.8828 14.1702 19.8487 14.2146 19.8144L13.6989 19.1411C13.656 19.1744 13.6128 19.2075 13.5694 19.2405ZM15.6346 18.6405C15.8701 18.4327 16.107 18.2171 16.3386 17.9995C16.4427 17.9018 16.5464 17.8029 16.6497 17.703L16.0633 17.091C15.9628 17.1881 15.862 17.2842 15.7609 17.3792C15.5356 17.5909 15.3054 17.8005 15.0765 18.0024C15.0205 18.0517 14.9646 18.1007 14.9085 18.1493L15.4617 18.7917C15.5194 18.7416 15.577 18.6912 15.6346 18.6405ZM22.6464 6.16138L23.4817 6.29412C23.5123 6.09958 23.5369 5.90558 23.5549 5.71741C23.6298 4.93327 23.5941 4.20662 23.4487 3.55744C23.2573 2.70497 22.8786 1.9899 22.3232 1.43193C21.2329 0.337083 19.5524 -0.0642539 17.4631 0.271512C16.4263 0.438174 15.3106 0.782701 14.1473 1.29554L14.4872 2.07341C15.5846 1.58962 16.6309 1.26564 17.5969 1.1104C19.4072 0.819548 20.8348 1.13838 21.7252 2.03264C22.1658 2.47518 22.4681 3.05109 22.6239 3.74417C22.7496 4.30522 22.7797 4.94181 22.7133 5.63628C22.6968 5.80725 22.6743 5.98373 22.6464 6.16138ZM10.0536 4.74415C10.4546 4.43896 10.8694 4.1411 11.2865 3.8588L10.8137 3.15435C10.3838 3.44542 9.95623 3.75246 9.54278 4.06699L10.0536 4.74415ZM7.67629 6.77669C8.05136 6.41708 8.44156 6.06374 8.83614 5.72644L8.28783 5.07954C7.88109 5.4273 7.479 5.79158 7.0923 6.16223L7.67629 6.77669ZM23.3922 6.8944C23.3771 6.83867 23.3508 6.78662 23.315 6.74143C23.2792 6.69624 23.2346 6.65886 23.1839 6.63158C23.1332 6.60429 23.0775 6.58768 23.0202 6.58275C22.9629 6.57782 22.9052 6.58468 22.8506 6.60291L20.9063 7.25268C20.8009 7.28905 20.7141 7.36574 20.6647 7.46607C20.6153 7.5664 20.6073 7.68226 20.6425 7.78846C20.6777 7.89467 20.7532 7.98263 20.8526 8.03324C20.952 8.08384 21.0672 8.09299 21.1733 8.05869L22.2876 7.68635C21.9807 8.66293 21.5839 9.60866 21.1022 10.5113C20.439 11.7579 19.6678 12.9433 18.7973 14.0538C18.1547 14.8779 17.468 15.6662 16.7402 16.4154L17.3456 17.0088C18.0946 16.2379 18.8014 15.4265 19.4627 14.5785C20.3641 13.4284 21.1627 12.2007 21.8494 10.9097C22.272 10.1132 22.6342 9.28584 22.9331 8.43465L23.1702 9.30916C23.2006 9.4168 23.272 9.50807 23.369 9.56312C23.4659 9.61818 23.5806 9.63259 23.6881 9.60322C23.7956 9.57385 23.8872 9.50307 23.943 9.40626C23.9989 9.30945 24.0144 9.19443 23.9863 9.08617L23.3922 6.8944ZM0.874638 16.7201C0.904474 16.7201 0.934224 16.7169 0.963398 16.7106L2.88714 16.2977C2.99683 16.2742 3.09271 16.2078 3.1537 16.1133C3.21468 16.0187 3.23578 15.9037 3.21233 15.7936C3.18889 15.6834 3.12283 15.5871 3.0287 15.5258C2.93456 15.4646 2.82005 15.4434 2.71036 15.4669L1.51292 15.724C1.77516 14.9863 2.08988 14.2685 2.45465 13.5762C3.10142 12.3457 3.85427 11.1745 4.70457 10.0759C5.10242 9.55807 5.53454 9.03621 5.9879 8.52518C6.23986 8.24171 6.5037 7.95649 6.7721 7.67743C6.88898 7.55595 7.00999 7.43224 7.13194 7.3098L6.53389 6.70905C6.40849 6.83498 6.284 6.9622 6.16384 7.08718C5.88778 7.37421 5.61627 7.66771 5.35675 7.95967C4.8897 8.48584 4.445 9.0232 4.03593 9.55573C3.15574 10.693 2.37642 11.9055 1.70688 13.1793C1.43797 13.6902 1.19494 14.2144 0.978728 14.75L0.837263 14.0854C0.826076 14.0304 0.80416 13.9782 0.77278 13.9318C0.7414 13.8854 0.701177 13.8457 0.654435 13.815C0.607692 13.7843 0.555356 13.7632 0.500447 13.7529C0.445538 13.7426 0.389145 13.7434 0.334523 13.7551C0.279901 13.7668 0.228133 13.7893 0.182207 13.8212C0.136282 13.8531 0.0971086 13.8939 0.0669494 13.9411C0.0367901 13.9883 0.0162424 14.0411 0.00649269 14.0963C-0.00325704 14.1516 -0.00201566 14.2082 0.0101451 14.2629L0.461502 16.384C0.481699 16.4791 0.533729 16.5643 0.608912 16.6254C0.684096 16.6866 0.777886 16.72 0.874638 16.7201Z" fill="#75FBB9"/>
<path id="&#60;Compound Path&#62;" d="M15.5868 12.7421C15.586 12.276 15.4894 11.8151 15.3031 11.3882C15.1168 10.9613 14.8449 10.5775 14.5043 10.261C14.1401 9.92065 13.7109 9.65824 13.2426 9.4897C12.7744 9.32115 12.2769 9.25 11.7804 9.28055C10.8841 9.33242 10.0393 9.718 9.41093 10.362C8.77862 11.0097 8.41872 11.8508 8.41555 12.73C8.411 14.0071 9.14619 15.1725 10.2563 15.7716V17.7547C10.2563 17.9892 10.4644 18.1582 10.698 18.1582H13.3037C13.5373 18.1582 13.7454 17.9894 13.7454 17.7547V15.7796C14.8556 15.1682 15.5868 14.0037 15.5868 12.7421ZM9.27016 12.7328C9.27696 12.0657 9.54398 11.428 10.0139 10.9566C10.4948 10.4635 11.1415 10.1683 11.8276 10.1286C12.2087 10.1047 12.5907 10.1589 12.9503 10.2879C13.3098 10.4169 13.6395 10.618 13.9193 10.879C14.175 11.1167 14.3792 11.4048 14.519 11.7254C14.6587 12.046 14.7311 12.3921 14.7316 12.7421C14.7316 13.7589 14.1131 14.6949 13.1419 15.1267C13.0681 15.1606 13.0058 15.2154 12.9627 15.2844C12.9196 15.3535 12.8977 15.4337 12.8996 15.5152V15.5566H11.1022V15.5035C11.1041 15.4211 11.0816 15.34 11.0375 15.2704C10.9935 15.2009 10.9298 15.1461 10.8547 15.1129C10.3863 14.9173 9.98595 14.587 9.704 14.1635C9.42205 13.74 9.27111 13.2422 9.27016 12.7328ZM11.1022 17.3087V16.4061H12.8996V17.3087H11.1022Z" fill="#75FBB9"/>
<path id="&#60;Path&#62;_3" d="M11.578 6.77482V8.33047C11.578 8.44312 11.6225 8.55116 11.7018 8.63082C11.7811 8.71047 11.8887 8.75522 12.0009 8.75522C12.113 8.75522 12.2206 8.71047 12.2999 8.63082C12.3792 8.55116 12.4238 8.44312 12.4238 8.33047V6.77482C12.4238 6.66217 12.3792 6.55413 12.2999 6.47447C12.2206 6.39482 12.113 6.35007 12.0009 6.35007C11.8887 6.35007 11.7811 6.39482 11.7018 6.47447C11.6225 6.55413 11.578 6.66217 11.578 6.77482ZM5.97834 12.1585C5.86617 12.1585 5.7586 12.2033 5.67929 12.2829C5.59998 12.3626 5.55542 12.4706 5.55542 12.5833C5.55542 12.6959 5.59998 12.804 5.67929 12.8836C5.7586 12.9633 5.86617 13.008 5.97834 13.008H7.59039C7.70255 13.008 7.81012 12.9633 7.88943 12.8836C7.96874 12.804 8.0133 12.6959 8.0133 12.5833C8.0133 12.4706 7.96874 12.3626 7.88943 12.2829C7.81012 12.2033 7.70255 12.1585 7.59039 12.1585H5.97834ZM18.4463 12.5833C18.4463 12.4706 18.4018 12.3626 18.3225 12.2829C18.2431 12.2033 18.1356 12.1585 18.0234 12.1585H16.4114C16.2992 12.1585 16.1916 12.2033 16.1123 12.2829C16.033 12.3626 15.9884 12.4706 15.9884 12.5833C15.9884 12.6959 16.033 12.804 16.1123 12.8836C16.1916 12.9633 16.2992 13.008 16.4114 13.008H18.0234C18.1356 13.008 18.2431 12.9633 18.3225 12.8836C18.4018 12.804 18.4463 12.6959 18.4463 12.5833ZM8.89281 9.99953C8.97739 9.99955 9.06003 9.9741 9.13006 9.92647C9.20009 9.87884 9.25429 9.81122 9.28566 9.73233C9.31703 9.65345 9.32413 9.56693 9.30605 9.48395C9.28796 9.40097 9.24552 9.32534 9.1842 9.26683L8.03646 8.17167C7.95514 8.09407 7.84646 8.0521 7.73432 8.05498C7.62219 8.05786 7.51579 8.10537 7.43853 8.18704C7.36127 8.26871 7.31948 8.37786 7.32235 8.49048C7.32522 8.6031 7.37252 8.70996 7.45384 8.78756L8.60168 9.88273C8.68017 9.9578 8.78442 9.99963 8.89281 9.99953ZM15.9653 8.17167L14.8175 9.26683C14.7362 9.34443 14.6889 9.45129 14.6861 9.56391C14.6832 9.67653 14.725 9.78568 14.8022 9.86735C14.8795 9.94903 14.9859 9.99653 15.098 9.99941C15.2102 10.0023 15.3188 9.96032 15.4002 9.88273L16.5479 8.78756C16.6292 8.70996 16.6765 8.6031 16.6794 8.49048C16.6823 8.37786 16.6405 8.26871 16.5632 8.18704C16.4859 8.10537 16.3795 8.05786 16.2674 8.05498C16.1553 8.0521 16.0466 8.09407 15.9653 8.17167Z" fill="#75FBB9"/>
</g>
</svg>
