<svg width="31" height="48" viewBox="0 0 31 48" fill="none" xmlns="http://www.w3.org/2000/svg">
<g id="Option">
<path id="Vector" d="M10.4734 16.6594H22.9667V19.0153H10.4734V16.6594ZM10.4698 22.8225H22.963V25.1784H10.4698V22.8225ZM10.4698 28.9847H22.963V31.3406H10.4698V28.9847Z" fill="white"/>
<path id="Vector_2" d="M8.80052 19.0256C9.22419 19.0256 9.56764 18.4938 9.56764 17.8378C9.56764 17.1818 9.22419 16.65 8.80052 16.65C8.37684 16.65 8.03339 17.1818 8.03339 17.8378C8.03339 18.4938 8.37684 19.0256 8.80052 19.0256Z" fill="white"/>
<path id="Vector_3" d="M8.80052 25.1878C9.22419 25.1878 9.56764 24.656 9.56764 24C9.56764 23.344 9.22419 22.8122 8.80052 22.8122C8.37684 22.8122 8.03339 23.344 8.03339 24C8.03339 24.656 8.37684 25.1878 8.80052 25.1878Z" fill="white"/>
<path id="Vector_4" d="M8.80052 31.35C9.22419 31.35 9.56764 30.8182 9.56764 30.1622C9.56764 29.5062 9.22419 28.9744 8.80052 28.9744C8.37684 28.9744 8.03339 29.5062 8.03339 30.1622C8.03339 30.8182 8.37684 31.35 8.80052 31.35Z" fill="white"/>
</g>
</svg>
