<svg width="21" height="21" viewBox="0 0 21 21" fill="none" xmlns="http://www.w3.org/2000/svg">
<path id="Vector" d="M17.7923 6.33334C17.0561 6.33195 16.343 6.59118 15.7796 7.06511C15.2161 7.53905 14.8386 8.19711 14.7138 8.92274C14.589 9.64837 14.7251 10.3947 15.0979 11.0297C15.4707 11.6646 16.0562 12.1471 16.7507 12.3917V14.1458C16.7507 15.389 16.2568 16.5813 15.3777 17.4604C14.4987 18.3395 13.3064 18.8333 12.0632 18.8333C10.82 18.8333 9.62768 18.3395 8.7486 17.4604C7.86953 16.5813 7.37567 15.389 7.37567 14.1458V13.0833L10.6298 10.4813C11.241 9.99452 11.7342 9.37592 12.0726 8.67171C12.411 7.96749 12.5858 7.19589 12.584 6.41459V1.12501C12.584 0.848743 12.4743 0.583791 12.2789 0.388441C12.0836 0.19309 11.8186 0.0833435 11.5423 0.0833435H9.459C9.18273 0.0833435 8.91778 0.19309 8.72243 0.388441C8.52708 0.583791 8.41733 0.848743 8.41733 1.12501C8.41733 1.40128 8.52708 1.66623 8.72243 1.86158C8.91778 2.05693 9.18273 2.16668 9.459 2.16668H10.5007V6.41459C10.5017 6.88325 10.3969 7.34608 10.194 7.76853C9.99105 8.19097 9.69529 8.56209 9.32879 8.85418L6.334 11.25L3.34025 8.85418C2.9735 8.56225 2.6775 8.19118 2.47439 7.76872C2.27127 7.34626 2.16631 6.88334 2.16733 6.41459V2.16668H3.209C3.48527 2.16668 3.75022 2.05693 3.94557 1.86158C4.14092 1.66623 4.25067 1.40128 4.25067 1.12501C4.25067 0.848743 4.14092 0.583791 3.94557 0.388441C3.75022 0.19309 3.48527 0.0833435 3.209 0.0833435H1.12567C0.849399 0.0833435 0.584447 0.19309 0.389097 0.388441C0.193746 0.583791 0.0839997 0.848743 0.0839997 1.12501V6.41459C0.0821 7.1959 0.256889 7.96753 0.595292 8.67176C0.933695 9.37598 1.42695 9.99457 2.03817 10.4813L5.29233 13.0833V14.1458C5.29233 15.9416 6.00569 17.6638 7.27546 18.9335C8.54524 20.2033 10.2674 20.9167 12.0632 20.9167C13.8589 20.9167 15.5811 20.2033 16.8509 18.9335C18.1206 17.6638 18.834 15.9416 18.834 14.1458V12.3917C19.5285 12.1471 20.1139 11.6646 20.4867 11.0297C20.8596 10.3947 20.9956 9.64837 20.8709 8.92274C20.7461 8.19711 20.3685 7.53905 19.8051 7.06511C19.2416 6.59118 18.5286 6.33195 17.7923 6.33334ZM17.7923 10.5C17.5863 10.5 17.3849 10.4389 17.2136 10.3245C17.0423 10.21 16.9088 10.0473 16.83 9.85697C16.7511 9.66663 16.7305 9.45719 16.7707 9.25513C16.8109 9.05306 16.9101 8.86745 17.0558 8.72178C17.2014 8.57609 17.387 8.47689 17.5891 8.43669C17.7912 8.3965 18.0006 8.41713 18.191 8.49597C18.3813 8.57481 18.544 8.70832 18.6584 8.87962C18.7729 9.05093 18.834 9.25232 18.834 9.45834C18.8337 9.73453 18.7239 9.99932 18.5286 10.1946C18.3333 10.3899 18.0685 10.4997 17.7923 10.5Z" fill="black"/>
</svg>
