<svg width="25" height="28" viewBox="0 0 25 28" fill="none" xmlns="http://www.w3.org/2000/svg">
<path d="M2.48193 16.9106L2.00583 16.3917L3.81526 14.4201L4.29137 14.939L2.48193 16.9106ZM14.3594 2.90998L14.8355 3.42823L13.0913 5.33019L12.6152 4.81164L14.3594 2.90998ZM0 9.92572H2.69304V10.6595H0V9.92572ZM14.8119 9.92572H17.5049V10.6595H14.8119V9.92572ZM3.7686 5.36047L1.98555 3.41703L2.46193 2.89818L4.24498 4.84161L3.7686 5.36047ZM8.29413 7.82881L6.85886 9.39294C6.79631 9.46106 6.74668 9.54194 6.71282 9.63097C6.67897 9.72 6.66154 9.81543 6.66154 9.9118C6.66154 10.0082 6.67897 10.1036 6.71282 10.1926C6.74668 10.2816 6.79631 10.3625 6.85886 10.4307L22.4152 27.3836C22.678 27.6703 23.1041 27.6703 23.3674 27.3836L24.8027 25.8195C24.8652 25.7514 24.9149 25.6705 24.9487 25.5815C24.9826 25.4924 25 25.397 25 25.3006C25 25.2043 24.9826 25.1089 24.9487 25.0198C24.9149 24.9308 24.8652 24.8499 24.8027 24.7818L9.24635 7.82881C9.18388 7.76057 9.10968 7.70642 9.02798 7.66948C8.94628 7.63254 8.8587 7.61352 8.77024 7.61352C8.68179 7.61352 8.59421 7.63254 8.51251 7.66948C8.43081 7.70642 8.3566 7.76057 8.29413 7.82881ZM11.0877 14.2137L7.16303 9.93753L8.7833 8.17148L12.708 12.4483L11.0877 14.2137ZM8.07941 0.387756H8.75274V3.32258H8.07941V0.387756ZM8.07941 16.5295H8.75274V19.4643H8.07941V16.5295Z" fill="black"/>
</svg>
